<svg width="32" height="36" viewBox="0 0 32 36" fill="none" xmlns="http://www.w3.org/2000/svg">
<path d="M31.7647 28.6172V32.8359C31.7647 34.5866 30.346 36 28.5882 36H3.17647C1.41875 36 0 34.5866 0 32.8359V28.6172L5.08242 27.5625H30.0707C31.0236 28.1741 31.7647 28.6172 31.7647 28.6172Z" fill="#FEA832"/>
<path d="M31.7647 28.6172V32.8359C31.7647 34.5866 30.346 36 28.5882 36H15.8824V27.5625H30.0706C31.0236 28.1741 31.7647 28.6172 31.7647 28.6172Z" fill="#FE9923"/>
<path d="M31.7647 14.8359L30.134 16.2491L31.7647 16.9453V28.6172C31.7647 30.3679 30.346 31.7812 28.5882 31.7812H3.17647C1.41875 31.7812 0 30.3679 0 28.6172V16.9453L1.5036 15.9327L0 14.8359V3.16406C0 1.41321 1.41875 0 3.17647 0H28.5882C30.346 0 31.7647 1.41321 31.7647 3.16406V14.8359Z" fill="#FEDB41"/>
<path d="M31.7647 14.8359L30.134 16.2491L31.7647 16.9453V28.6172C31.7647 30.3679 30.346 31.7812 28.5882 31.7812H15.8824V0H28.5882C30.346 0 31.7647 1.41321 31.7647 3.16406V14.8359Z" fill="#FCBF29"/>
<path fill-rule="evenodd" clip-rule="evenodd" d="M31.7647 14.8359H24.3318C24.9882 13.95 25.4118 12.8531 25.4118 11.6719C25.4118 8.76099 23.04 6.39844 20.1176 6.39844C18.9106 6.39844 17.8305 6.82031 16.9412 7.49524V0H14.8235V7.49524C13.9342 6.82031 12.8541 6.39844 11.6471 6.39844C8.7247 6.39844 6.35294 8.76099 6.35294 11.6719C6.35294 12.8531 6.77646 13.95 7.43295 14.8359H0V16.9453H12.6C12.1129 19.35 9.97412 21.1641 7.41177 21.1641C6.81876 21.1641 6.35294 21.6281 6.35294 22.2188C6.35294 22.8093 6.81876 23.2734 7.41177 23.2734C11.1388 23.2734 14.1882 20.5101 14.7177 16.9453H14.8235V31.7812H16.9412V16.9453H17.0471C17.5765 20.5101 20.6259 23.2734 24.3529 23.2734C24.946 23.2734 25.4118 22.8093 25.4118 22.2188C25.4118 21.6281 24.946 21.1641 24.3529 21.1641C21.7905 21.1641 19.6518 19.35 19.1647 16.9453H31.7647V14.8359ZM14.8235 14.8359H11.6471C9.88934 14.8359 8.47058 13.4226 8.47058 11.6719C8.47058 9.92102 9.88934 8.50781 11.6471 8.50781C13.4048 8.50781 14.8235 9.92102 14.8235 11.6719V14.8359ZM16.9412 14.8359H20.1176C21.8753 14.8359 23.2941 13.4226 23.2941 11.6719C23.2941 9.92102 21.8753 8.50781 20.1176 8.50781C18.3599 8.50781 16.9412 9.92102 16.9412 11.6719V14.8359Z" fill="#FC1A40"/>
<path fill-rule="evenodd" clip-rule="evenodd" d="M24.3318 14.8359H31.7647V16.9453H19.1647C19.6518 19.35 21.7905 21.1641 24.3529 21.1641C24.946 21.1641 25.4118 21.6281 25.4118 22.2188C25.4118 22.8093 24.946 23.2734 24.3529 23.2734C20.6259 23.2734 17.5765 20.5101 17.0471 16.9453H16.9412V31.7812H15.8824V0H16.9412V7.49524C17.8305 6.82031 18.9106 6.39844 20.1176 6.39844C23.04 6.39844 25.4118 8.76099 25.4118 11.6719C25.4118 12.8531 24.9883 13.95 24.3318 14.8359ZM16.9412 14.8359H20.1177C21.8754 14.8359 23.2941 13.4226 23.2941 11.6719C23.2941 9.92102 21.8754 8.50781 20.1177 8.50781C18.36 8.50781 16.9412 9.92102 16.9412 11.6719V14.8359Z" fill="#C60034"/>
</svg>
