<svg width="33" height="33" viewBox="0 0 33 33" fill="none" xmlns="http://www.w3.org/2000/svg">
<path d="M25.2656 6.76758V15.7201L14.5664 33H0.966797C0.425326 33 0 32.5745 0 32.0332V3.86719C0 1.74017 1.7403 0 3.86719 0H13.4063V5.80078H24.2988C24.8403 5.80078 25.2656 6.22611 25.2656 6.76758Z" fill="#CAE8F9"/>
<path d="M25.2656 6.76758V15.7201L14.5664 33V5.80078H24.2988C24.8403 5.80078 25.2656 6.22611 25.2656 6.76758Z" fill="#A4D9F5"/>
<path d="M9.66797 14.502C9.66797 15.0363 9.23555 15.4688 8.70117 15.4688H4.83398C4.2996 15.4688 3.86719 15.0363 3.86719 14.502V10.6348C3.86719 10.1004 4.2996 9.66797 4.83398 9.66797H8.70117C9.23555 9.66797 9.66797 10.1004 9.66797 10.6348V14.502Z" fill="#80C6F0"/>
<path d="M8.70117 23.2031H4.83398C4.2996 23.2031 3.86719 22.7707 3.86719 22.2363V18.3691C3.86719 17.8348 4.2996 17.4023 4.83398 17.4023H8.70117C9.23555 17.4023 9.66797 17.8348 9.66797 18.3691V22.2363C9.66797 22.7707 9.23555 23.2031 8.70117 23.2031Z" fill="#80C6F0"/>
<path d="M21.3984 10.6348C21.3984 11.1761 20.9731 11.6016 20.4316 11.6016H12.6328C12.0913 11.6016 11.666 11.1761 11.666 10.6348C11.666 10.0933 12.0913 9.66797 12.6328 9.66797H20.4316C20.9731 9.66797 21.3984 10.0933 21.3984 10.6348Z" fill="#80C6F0"/>
<path d="M29.1328 15.4687C29.1328 16.4935 28.7267 17.4796 27.9919 18.195C27.2765 18.9298 26.2905 19.3359 25.2656 19.3359L22.3652 18.9685L18.382 18.4851C17.8406 17.9437 17.5312 17.2089 17.5312 16.4355C17.5312 15.662 17.8406 14.9272 18.382 14.3859C19.2521 13.4964 20.6443 13.361 21.7465 13.9025C21.8818 13.5737 22.0751 13.245 22.3652 12.955C22.404 12.8776 22.4619 12.8197 22.5393 12.7423C23.9895 11.2728 26.5417 11.2728 27.9919 12.7423C28.7267 13.4577 29.1328 14.4438 29.1328 15.4687Z" fill="#FE9923"/>
<path d="M21.3984 10.6348C21.3984 11.1761 20.9731 11.6016 20.4316 11.6016H14.5664V9.66797H20.4316C20.9731 9.66797 21.3984 10.0933 21.3984 10.6348Z" fill="#4DBBEB"/>
<path d="M29.1328 3.86719C29.1328 5.99408 27.3925 7.73438 25.2656 7.73438H3.86719C5.99408 7.73438 7.73438 5.99408 7.73438 3.86719C7.73438 1.74017 5.99408 0 3.86719 0H25.2656C27.3925 0 29.1328 1.74017 29.1328 3.86719Z" fill="#80C6F0"/>
<path d="M25.2656 19.3359L22.3652 18.9685V12.955C22.404 12.8776 22.4619 12.8197 22.5393 12.7423C23.9895 11.2728 26.5417 11.2728 27.9919 12.7423C28.7267 13.4577 29.1328 14.4438 29.1328 15.4687C29.1328 16.4935 28.7267 17.4796 27.9919 18.195C27.2765 18.9298 26.2905 19.3359 25.2656 19.3359Z" fill="#FE8821"/>
<path d="M30.0996 21.2695H14.5664C14.0249 21.2695 13.5996 21.6949 13.5996 22.2363V32.0332C13.5996 32.5745 14.0249 33 14.5664 33H30.0996C30.6411 33 31.0664 32.5745 31.0664 32.0332V22.2363C31.0664 21.6949 30.6411 21.2695 30.0996 21.2695Z" fill="#FC1A40"/>
<path d="M29.1328 3.86719C29.1328 5.99408 27.3925 7.73438 25.2656 7.73438H14.5664V0H25.2656C27.3925 0 29.1328 1.74017 29.1328 3.86719Z" fill="#4DBBEB"/>
<path d="M31.0664 22.2363V32.0332C31.0664 32.5745 30.6411 33 30.0996 33H22.3652V21.2695H30.0996C30.6411 21.2695 31.0664 21.6949 31.0664 22.2363Z" fill="#C60034"/>
<path d="M32.0332 17.4023H12.6328C12.0913 17.4023 11.666 17.8277 11.666 18.3691V22.2363C11.666 22.7777 12.0913 23.2031 12.6328 23.2031H32.0332C32.5747 23.2031 33 22.7777 33 22.2363V18.3691C33 17.8277 32.5747 17.4023 32.0332 17.4023Z" fill="#FF3E75"/>
<path d="M19.4648 17.4023C19.4648 34.5531 19.4648 5.90874 19.4648 33H25.2656C25.2656 15.0934 25.2656 35.4642 25.2656 17.4023H19.4648Z" fill="#FCBF29"/>
<path d="M33 18.3691V22.2363C33 22.7777 32.5747 23.2031 32.0332 23.2031H22.3652V17.4023H32.0332C32.5747 17.4023 33 17.8277 33 18.3691Z" fill="#FC1A40"/>
<path d="M22.3652 17.4023C22.3652 34.5531 22.3652 5.90874 22.3652 33H25.2656C25.2656 15.0934 25.2656 35.4642 25.2656 17.4023H22.3652Z" fill="#FE9923"/>
</svg>
